<?xml version="1.0" standalone="no"?>
<!DOCTYPE svg PUBLIC "-//W3C//DTD SVG 20010904//EN"
 "http://www.w3.org/TR/2001/REC-SVG-20010904/DTD/svg10.dtd">
<svg version="1.0" xmlns="http://www.w3.org/2000/svg"
 width="512.000000pt" height="512.000000pt" viewBox="0 0 512.000000 512.000000"
 preserveAspectRatio="xMidYMid meet">

<g transform="translate(0.000000,512.000000) scale(0.100000,-0.100000)"
fill="#000000" stroke="none">
<path d="M2257 5109 c-105 -25 -195 -109 -237 -219 -9 -24 -15 -115 -19 -279
l-6 -244 -88 -33 c-48 -17 -121 -48 -161 -67 l-73 -35 -164 164 c-174 175
-222 209 -316 223 -65 9 -144 -4 -206 -36 -73 -37 -415 -378 -451 -450 -48
-96 -50 -217 -5 -306 12 -24 94 -116 185 -207 90 -91 164 -171 164 -177 0 -6
-14 -41 -32 -78 -17 -37 -45 -106 -63 -154 l-32 -86 -244 -6 c-164 -4 -255
-10 -279 -19 -90 -34 -175 -115 -206 -196 -17 -44 -19 -78 -19 -349 l0 -300
26 -55 c39 -82 110 -146 199 -180 24 -9 115 -15 279 -19 l244 -6 33 -88 c17
-48 48 -121 67 -161 l35 -73 -164 -164 c-175 -174 -209 -222 -223 -316 -9 -65
4 -144 36 -206 36 -73 378 -415 450 -451 95 -48 217 -50 306 -5 24 12 114 93
207 185 91 90 171 164 177 164 6 0 41 -14 78 -32 37 -17 106 -45 154 -63 l86
-32 6 -244 c4 -164 10 -255 19 -279 34 -90 115 -175 196 -206 44 -17 78 -19
349 -19 l300 0 55 26 c82 39 146 110 180 199 9 24 15 115 19 279 l6 244 88 33
c48 17 121 48 161 67 l73 35 164 -164 c201 -202 230 -219 364 -219 143 0 169
16 396 243 161 161 193 198 219 254 25 54 31 79 31 134 0 135 -23 173 -229
378 l-160 159 35 73 c19 40 50 113 67 161 l33 88 244 6 c164 4 255 10 279 19
89 34 160 98 199 180 l26 55 0 305 0 305 -26 55 c-39 82 -110 146 -199 180
-24 9 -115 15 -279 19 l-244 6 -33 88 c-17 48 -48 121 -67 161 l-35 73 164
164 c175 174 209 222 223 316 3 26 3 72 -1 101 -15 99 -48 144 -248 344 -226
227 -252 243 -395 243 -134 0 -163 -17 -364 -219 l-164 -164 -73 35 c-40 19
-113 50 -161 67 l-88 33 -6 244 c-4 164 -10 255 -19 279 -34 89 -98 160 -180
199 l-55 26 -285 2 c-157 1 -302 -2 -323 -8z m555 -219 c21 -6 46 -23 57 -39
18 -26 20 -47 23 -314 4 -340 -1 -327 119 -367 155 -53 207 -74 304 -122 122
-62 149 -70 183 -57 15 5 110 92 212 193 203 201 221 216 263 216 48 0 77 -23
255 -203 160 -162 172 -177 172 -211 0 -20 -6 -49 -14 -64 -8 -15 -96 -108
-196 -207 -100 -99 -188 -194 -196 -211 -17 -40 -11 -60 54 -189 48 -97 69
-149 122 -304 40 -120 27 -115 367 -119 267 -3 288 -5 314 -23 16 -11 33 -36
39 -57 13 -48 13 -456 0 -504 -6 -21 -23 -46 -39 -57 -26 -18 -47 -20 -314
-23 -340 -4 -327 1 -367 -119 -53 -155 -74 -207 -122 -304 -62 -122 -70 -149
-57 -183 5 -15 92 -110 193 -212 101 -102 191 -196 200 -210 19 -28 21 -72 5
-103 -16 -31 -329 -346 -361 -363 -32 -17 -71 -18 -101 -3 -12 6 -110 99 -218
205 -110 109 -204 194 -215 195 -47 3 -74 -6 -173 -56 -103 -51 -154 -72 -310
-125 -120 -40 -115 -27 -119 -367 -3 -267 -5 -288 -23 -314 -11 -16 -36 -33
-57 -39 -48 -13 -456 -13 -504 0 -21 6 -46 23 -57 39 -18 26 -20 47 -23 314
-4 340 1 327 -119 367 -153 52 -207 74 -324 131 -110 54 -123 58 -155 49 -26
-7 -83 -58 -220 -195 -102 -103 -197 -193 -212 -201 -15 -8 -44 -14 -64 -14
-36 0 -49 11 -226 188 -177 177 -188 190 -188 226 0 20 5 47 11 59 6 12 99
110 205 218 109 110 194 204 195 215 3 47 -6 74 -56 173 -51 103 -72 154 -125
310 -40 120 -27 115 -367 119 -267 3 -288 5 -314 23 -16 11 -33 36 -39 57 -13
48 -13 456 0 504 6 21 23 46 39 57 26 18 47 20 314 23 340 4 327 -1 367 119
53 155 74 207 122 304 65 129 71 149 54 189 -8 17 -96 112 -196 211 -100 99
-188 192 -196 207 -8 15 -14 44 -14 64 0 36 11 49 188 226 177 177 190 188
226 188 20 0 49 -6 64 -14 15 -8 108 -96 207 -196 99 -100 194 -188 211 -196
40 -17 60 -11 189 54 97 48 149 69 304 122 120 40 115 27 119 367 3 268 4 288
23 315 11 15 35 32 52 37 44 13 463 13 509 1z"/>
<path d="M2385 3546 c-395 -76 -690 -352 -797 -746 -33 -123 -33 -357 0 -480
52 -190 133 -333 266 -466 133 -133 276 -214 466 -266 123 -33 357 -33 480 0
190 52 333 133 466 266 133 133 214 276 266 466 33 123 33 357 0 480 -52 190
-133 333 -266 466 -132 132 -276 214 -461 264 -102 28 -317 36 -420 16z m334
-226 c298 -61 540 -303 601 -601 25 -119 25 -199 0 -318 -61 -298 -303 -540
-601 -601 -119 -25 -199 -25 -318 0 -231 47 -430 202 -537 416 -51 102 -84
238 -84 344 0 288 174 565 436 696 161 80 326 101 503 64z"/>
</g>
</svg>
