<?xml version="1.0" standalone="no"?>
<!DOCTYPE svg PUBLIC "-//W3C//DTD SVG 20010904//EN"
 "http://www.w3.org/TR/2001/REC-SVG-20010904/DTD/svg10.dtd">
<svg version="1.0" xmlns="http://www.w3.org/2000/svg"
 width="512.000000pt" height="512.000000pt" viewBox="0 0 512.000000 512.000000"
 preserveAspectRatio="xMidYMid meet">

<g transform="translate(0.000000,512.000000) scale(0.100000,-0.100000)"
fill="#000000" stroke="none">
<path d="M1990 5109 c-493 -63 -905 -386 -1090 -853 -35 -90 -76 -249 -86
-337 l-7 -60 -104 -49 c-134 -63 -224 -123 -323 -217 -228 -214 -358 -494
-376 -809 -29 -486 243 -930 699 -1144 157 -74 389 -125 534 -118 60 3 79 8
115 33 115 81 116 249 1 329 -37 26 -54 30 -149 37 -179 14 -308 57 -446 146
-307 200 -432 564 -313 914 90 265 328 473 596 523 53 9 113 57 137 108 15 32
21 72 26 158 22 456 313 819 742 927 105 26 343 23 448 -6 286 -77 514 -284
641 -581 52 -121 65 -141 117 -171 39 -21 53 -24 139 -21 173 4 317 -49 439
-164 115 -109 173 -235 190 -413 15 -157 64 -206 222 -221 177 -17 304 -76
412 -190 143 -152 197 -357 146 -554 -28 -109 -63 -169 -150 -257 -80 -81
-167 -135 -262 -165 -166 -51 -221 -221 -110 -337 82 -86 174 -82 377 18 269
132 468 373 537 650 32 129 32 343 -1 469 -71 272 -230 488 -461 625 -79 47
-193 94 -271 111 l-56 13 -13 56 c-35 157 -142 346 -266 469 -161 158 -361
255 -597 287 -43 6 -49 10 -68 48 -96 190 -259 387 -420 504 -220 162 -512
255 -785 252 -55 -1 -128 -5 -164 -10z"/>
<path d="M1892 2309 c-45 -13 -108 -80 -121 -126 -7 -25 -11 -284 -11 -766 l0
-729 -51 46 c-58 52 -112 71 -178 62 -57 -8 -106 -39 -139 -89 -36 -54 -38
-154 -5 -207 12 -19 122 -135 245 -256 195 -194 229 -224 268 -234 55 -15 122
-7 164 19 17 11 131 120 252 243 194 195 224 229 234 268 33 123 -41 240 -161
256 -66 9 -120 -10 -178 -62 l-51 -45 -2 748 -3 748 -24 38 c-47 76 -151 113
-239 86z"/>
<path d="M3075 2297 c-37 -18 -108 -83 -271 -248 -194 -195 -224 -230 -234
-269 -33 -123 41 -240 161 -256 66 -9 120 10 178 62 l51 45 2 -748 3 -748 24
-38 c13 -21 42 -50 64 -65 34 -23 52 -27 107 -27 55 0 73 4 107 27 22 15 51
44 64 65 l24 38 3 748 2 748 51 -45 c58 -52 112 -71 178 -62 120 16 194 133
161 256 -10 39 -40 74 -238 272 -124 125 -241 235 -261 244 -59 28 -119 28
-176 1z"/>
</g>
</svg>
